<?xml version="1.0" encoding="UTF-8"?>
<svg id="Layer_1" data-name="Layer 1" xmlns="http://www.w3.org/2000/svg" viewBox="0 0 180 180">
  <defs>
    <style>
      .cls-1 {
        fill: #231f20;
      }
    </style>
  </defs>
  <path class="cls-1" d="m123.28,133.74l-1.83,3.02c-7.01,11.62-14.44,17.03-23.38,17.03-20.39,0-33.05-24.64-33.05-64.31s12.67-63.29,33.05-63.29c8.09,0,14.91,4.52,20.85,13.81l1.87,2.92,11.62-18.95-1.57-2.49C125.8,13.46,114.83,0,98.08,0c-31.72,0-53.03,36.17-53.03,90s20.76,90,51.65,90c14.91,0,26.95-8.31,36.79-25.42l1.46-2.53-11.67-18.31Z"/>
  <g>
    <ellipse class="cls-1" cx="172.7" cy="90" rx="6.99" ry="11.89"/>
    <path class="cls-1" d="m172.7,102.43c-4.03,0-7.3-5.57-7.3-12.43s3.28-12.43,7.3-12.43,7.3,5.57,7.3,12.43-3.28,12.43-7.3,12.43Zm0-23.79c-3.68,0-6.68,5.1-6.68,11.36s2.99,11.36,6.68,11.36,6.67-5.1,6.67-11.36-2.99-11.36-6.67-11.36Z"/>
  </g>
  <g>
    <ellipse class="cls-1" cx="7.3" cy="90" rx="6.99" ry="11.89"/>
    <path class="cls-1" d="m7.3,102.43c-4.03,0-7.3-5.57-7.3-12.43s3.28-12.43,7.3-12.43,7.3,5.57,7.3,12.43-3.28,12.43-7.3,12.43Zm0-23.79c-3.68,0-6.67,5.1-6.67,11.36s2.99,11.36,6.67,11.36,6.67-5.1,6.67-11.36-2.99-11.36-6.67-11.36Z"/>
  </g>
</svg>