<?xml version="1.0" encoding="utf-8"?>
<!-- Generator: Adobe Illustrator 27.5.0, SVG Export Plug-In . SVG Version: 6.00 Build 0)  -->
<svg version="1.1" id="Layer_1" xmlns="http://www.w3.org/2000/svg" xmlns:xlink="http://www.w3.org/1999/xlink" x="0px" y="0px"
	 viewBox="0 0 1200 630" style="enable-background:new 0 0 1200 630;" xml:space="preserve">
<style type="text/css">
	.st0{fill:#231F20;stroke:#231F20;stroke-width:0.5;stroke-miterlimit:10;}
	.st1{fill:#231F20;}
</style>
<g>
	<path class="st0" d="M57,595.9c0.5,0,1,0.5,1.4,1.4l3.9,9c-3,7.4-6.6,13.2-10.8,17.3c-4.2,4.1-9.4,6.2-15.4,6.2
		c-5.2,0-9.9-1.9-14.2-5.8c-4.3-3.9-7.9-9.3-10.9-16.3c-3-7-5.3-15.4-7-25.2c-1.7-9.8-2.5-20.6-2.5-32.3s0.9-22.5,2.6-32.3
		c1.7-9.8,4.1-18.2,7.3-25.3s6.9-12.5,11.2-16.4c4.4-3.9,9.2-5.8,14.4-5.8s9.7,1.8,13.7,5.3s7.4,8.4,10.4,14.5l-3.2,9.7
		c-0.2,0.7-0.5,1.3-0.8,1.8c-0.3,0.5-0.8,0.7-1.3,0.7c-0.6,0-1.3-0.7-2.2-2.1s-2-3-3.4-4.7c-1.4-1.7-3.2-3.3-5.3-4.7
		c-2.1-1.4-4.8-2.1-7.9-2.1c-3.7,0-7.2,1.4-10.3,4.2s-5.8,6.9-8,12.1c-2.3,5.3-4,11.8-5.2,19.4s-1.9,16.2-1.9,25.8s0.7,18.4,2,26
		s3.1,14.1,5.3,19.3c2.3,5.3,4.9,9.3,8,12c3.1,2.8,6.4,4.1,9.9,4.1c2.2,0,4.1-0.3,5.9-0.8c1.7-0.5,3.3-1.4,4.8-2.6
		c1.5-1.2,2.8-2.6,4.1-4.4c1.3-1.8,2.5-3.9,3.8-6.4C55.8,596.4,56.4,595.9,57,595.9L57,595.9L57,595.9z"/>
	<path class="st0" d="M179.2,550.2c0,11.7-0.9,22.4-2.6,32.2c-1.7,9.8-4.2,18.2-7.3,25.2c-3.1,7-6.9,12.5-11.3,16.4
		c-4.4,3.9-9.3,5.8-14.6,5.8s-10.2-1.9-14.6-5.8c-4.4-3.9-8.2-9.3-11.3-16.4c-3.1-7-5.6-15.4-7.3-25.2c-1.7-9.8-2.6-20.5-2.6-32.2
		s0.9-22.4,2.6-32.2c1.7-9.8,4.2-18.2,7.3-25.3s6.9-12.6,11.3-16.5c4.4-3.9,9.3-5.9,14.6-5.9c5.3,0,10.2,2,14.6,5.9
		c4.4,3.9,8.2,9.4,11.3,16.5s5.6,15.5,7.3,25.3C178.3,527.8,179.2,538.5,179.2,550.2z M169.1,550.2c0-9.6-0.6-18.2-1.8-25.8
		c-1.2-7.6-2.9-14.1-5.2-19.3s-4.9-9.3-8.1-12.1c-3.2-2.8-6.7-4.2-10.6-4.2c-3.9,0-7.4,1.4-10.6,4.2c-3.2,2.8-5.9,6.9-8.1,12.1
		s-4,11.7-5.2,19.3c-1.2,7.6-1.8,16.2-1.8,25.8s0.6,18.2,1.8,25.8c1.2,7.6,2.9,14,5.2,19.3s5,9.3,8.1,12.1c3.2,2.8,6.7,4.2,10.6,4.2
		s7.5-1.4,10.6-4.2c3.2-2.8,5.9-6.8,8.1-12.1c2.2-5.3,4-11.7,5.2-19.3C168.5,568.3,169.1,559.8,169.1,550.2L169.1,550.2z"/>
	<path class="st0" d="M296,550.2c0,11.7-0.9,22.3-2.6,31.9s-4.2,17.8-7.3,24.6c-3.1,6.8-6.9,12.1-11.3,15.8
		c-4.4,3.7-9.3,5.6-14.6,5.6h-27.1v-156h27.1c5.3,0,10.2,1.9,14.6,5.6c4.4,3.7,8.2,9,11.3,15.9c3.1,6.9,5.6,15.1,7.3,24.7
		S296,538.5,296,550.2L296,550.2L296,550.2z M285.9,550.2c0-9.6-0.6-18.1-1.8-25.7c-1.2-7.5-2.9-13.9-5.2-19.2
		c-2.2-5.2-4.9-9.2-8.1-12c-3.2-2.8-6.7-4.1-10.6-4.1h-17.3V611h17.3c3.9,0,7.5-1.4,10.6-4.1c3.2-2.8,5.9-6.7,8.1-11.9
		s4-11.6,5.2-19.1C285.3,568.3,285.9,559.7,285.9,550.2L285.9,550.2L285.9,550.2z"/>
	<path class="st0" d="M394.8,610.9l0,17.2H350v-156h44.7v17.2h-34.9v51.8h28.3v16.5h-28.3v53.2L394.8,610.9L394.8,610.9L394.8,610.9
		z"/>
	<path class="st0" d="M565.1,595.9c0.5,0,1,0.5,1.4,1.4l3.9,9c-3,7.4-6.6,13.2-10.8,17.3c-4.2,4.1-9.4,6.2-15.4,6.2
		c-5.2,0-9.9-1.9-14.2-5.8c-4.3-3.9-7.9-9.3-10.9-16.3c-3-7-5.3-15.4-7-25.2c-1.7-9.8-2.5-20.6-2.5-32.3s0.9-22.5,2.6-32.3
		c1.7-9.8,4.1-18.2,7.3-25.3c3.1-7,6.9-12.5,11.2-16.4c4.4-3.9,9.2-5.8,14.4-5.8c5.3,0,9.7,1.8,13.7,5.3c4,3.6,7.4,8.4,10.4,14.5
		l-3.2,9.7c-0.2,0.7-0.5,1.3-0.8,1.8c-0.3,0.5-0.8,0.7-1.3,0.7c-0.6,0-1.3-0.7-2.2-2.1c-0.9-1.4-2-3-3.4-4.7
		c-1.4-1.7-3.2-3.3-5.3-4.7c-2.1-1.4-4.8-2.1-7.9-2.1c-3.7,0-7.2,1.4-10.3,4.2c-3.1,2.8-5.8,6.9-8,12.1c-2.3,5.3-4,11.8-5.2,19.4
		s-1.9,16.2-1.9,25.8s0.7,18.4,2,26s3.1,14.1,5.3,19.3c2.3,5.3,4.9,9.3,8,12c3.1,2.8,6.4,4.1,9.9,4.1c2.2,0,4.1-0.3,5.9-0.8
		c1.7-0.5,3.3-1.4,4.8-2.6s2.8-2.6,4.1-4.4c1.3-1.8,2.5-3.9,3.8-6.4C563.9,596.4,564.5,595.9,565.1,595.9L565.1,595.9L565.1,595.9z"
		/>
	<path class="st0" d="M675.3,628.1h-8.7c-1.8,0-3.1-1.5-4-4.5l-18.9-55.7c-0.6-1.7-1.2-3-1.8-3.8c-0.7-0.8-1.7-1.1-3.1-1.1h-7.4
		v65.1h-9.8v-156h20.5c4.6,0,8.6,1,11.9,3c3.3,2,6.1,4.9,8.3,8.7c2.2,3.8,3.8,8.3,4.8,13.7c1.1,5.3,1.6,11.3,1.6,17.9
		c0,5.5-0.4,10.7-1.2,15.5c-0.8,4.8-2,9.1-3.5,12.9s-3.4,7.1-5.6,9.8s-4.7,4.7-7.5,6.1c1.2,1.5,2.3,3.7,3.2,6.6L675.3,628.1
		L675.3,628.1L675.3,628.1z M641.8,547.7c2.8,0,5.3-0.8,7.5-2.2c2.2-1.5,4-3.6,5.5-6.3c1.5-2.7,2.6-6,3.3-9.8
		c0.7-3.8,1.1-8,1.1-12.5c0-9.3-1.4-16.3-4.3-21c-2.8-4.7-7.1-7.1-12.8-7.1h-10.7v58.9H641.8z"/>
	<path class="st0" d="M784,628.1h-7.6c-0.9,0-1.6-0.5-2.1-1.4c-0.5-0.9-0.9-2.1-1.2-3.6l-6.8-37.7h-32.6l-6.8,37.7
		c-0.2,1.3-0.6,2.5-1.2,3.5c-0.6,1-1.3,1.5-2.1,1.5H716l29-156h9.9L784,628.1L784,628.1L784,628.1z M763.5,570.2l-11.4-63.5
		c-0.3-1.9-0.7-4.1-1.1-6.6c-0.4-2.5-0.7-5.2-1.1-8c-0.7,5.9-1.4,10.8-2.2,14.7l-11.4,63.4L763.5,570.2L763.5,570.2z"/>
	<path class="st0" d="M843.2,489.3v54.5h29.8v17.2h-29.8v67.1h-9.8v-156h44.7v17.2L843.2,489.3L843.2,489.3z"/>
	<path class="st0" d="M979.6,489.9h-23.5v138.3h-9.8V489.9h-23.6v-17.8h56.9L979.6,489.9L979.6,489.9z"/>
	<path class="st0" d="M1075,610.9l0,17.2h-44.7v-156h44.7v17.2h-34.9v51.8h28.3v16.5h-28.3v53.2L1075,610.9L1075,610.9z"/>
	<path class="st0" d="M1191.5,550.2c0,11.7-0.9,22.3-2.6,31.9s-4.2,17.8-7.3,24.6c-3.1,6.8-6.9,12.1-11.3,15.8
		c-4.4,3.7-9.3,5.6-14.6,5.6h-27.1v-156h27.1c5.3,0,10.2,1.9,14.6,5.6c4.4,3.7,8.2,9,11.3,15.9c3.1,6.9,5.6,15.1,7.3,24.7
		S1191.5,538.5,1191.5,550.2L1191.5,550.2L1191.5,550.2z M1181.4,550.2c0-9.6-0.6-18.1-1.8-25.7c-1.2-7.5-2.9-13.9-5.2-19.2
		c-2.2-5.2-4.9-9.2-8.1-12c-3.2-2.8-6.7-4.1-10.6-4.1h-17.3V611h17.3c3.9,0,7.5-1.4,10.6-4.1c3.2-2.8,5.9-6.7,8.1-11.9
		c2.2-5.2,4-11.6,5.2-19.1C1180.8,568.3,1181.4,559.7,1181.4,550.2L1181.4,550.2L1181.4,550.2z"/>
</g>
<g>
	<path class="st1" d="M672,278.3l-3,6.2c-11.7,23.7-24,34.8-38.9,34.8c-33.9,0-55-50.3-55-131.4s21.1-129.3,55-129.3
		c13.5,0,24.8,9.2,34.7,28.2l3.1,6l19.3-38.7l-2.6-5.1C676.2,32.6,658,5.1,630.1,5.1c-52.8,0-88.3,73.9-88.3,183.9
		s34.5,183.9,86,183.9c24.8,0,44.9-17,61.2-51.9l2.4-5.2L672,278.3L672,278.3L672,278.3z"/>
	<g>
		<ellipse class="st1" cx="754.3" cy="189" rx="11.6" ry="24.3"/>
		<path class="st1" d="M754.3,214.4c-6.7,0-12.2-11.4-12.2-25.4s5.5-25.4,12.2-25.4s12.2,11.4,12.2,25.4S761,214.4,754.3,214.4z
			 M754.3,165.8c-6.1,0-11.1,10.4-11.1,23.2s5,23.2,11.1,23.2s11.1-10.4,11.1-23.2S760.4,165.8,754.3,165.8z"/>
	</g>
	<g>
		<ellipse class="st1" cx="479" cy="189" rx="11.6" ry="24.3"/>
		<path class="st1" d="M479,214.4c-6.7,0-12.1-11.4-12.1-25.4s5.5-25.4,12.1-25.4s12.1,11.4,12.1,25.4S485.7,214.4,479,214.4z
			 M479,165.8c-6.1,0-11.1,10.4-11.1,23.2s5,23.2,11.1,23.2s11.1-10.4,11.1-23.2S485.1,165.8,479,165.8z"/>
	</g>
</g>
</svg>
