<?xml version="1.0" encoding="UTF-8"?>
<svg id="Layer_1" data-name="Layer 1" xmlns="http://www.w3.org/2000/svg" viewBox="0 0 384 384">
  <defs>
    <style>
      .cls-1 {
        fill: #231f20;
      }
    </style>
  </defs>
  <path class="cls-1" d="m263.01,285.32l-3.89,6.45c-14.96,24.79-30.81,36.33-49.88,36.33-43.5,0-70.52-52.57-70.52-137.19s27.02-135.02,70.52-135.02c17.26,0,31.81,9.64,44.49,29.46l3.98,6.22,24.78-40.42-3.34-5.32C268.37,28.72,244.98,0,209.23,0c-67.66,0-113.12,77.16-113.12,192s44.28,192,110.19,192c31.82,0,57.49-17.74,78.49-54.22l3.11-5.4-24.89-39.06Z"/>
  <g>
    <ellipse class="cls-1" cx="368.42" cy="192" rx="14.91" ry="25.37"/>
    <path class="cls-1" d="m368.42,218.51c-8.59,0-15.58-11.89-15.58-26.51s6.99-26.51,15.58-26.51,15.58,11.89,15.58,26.51-6.99,26.51-15.58,26.51Zm0-50.75c-7.85,0-14.24,10.87-14.24,24.23s6.39,24.23,14.24,24.23,14.24-10.87,14.24-24.23-6.39-24.23-14.24-24.23Z"/>
  </g>
  <g>
    <ellipse class="cls-1" cx="15.58" cy="192" rx="14.91" ry="25.37"/>
    <path class="cls-1" d="m15.58,218.51c-8.59,0-15.58-11.89-15.58-26.51s6.99-26.51,15.58-26.51,15.58,11.89,15.58,26.51-6.99,26.51-15.58,26.51Zm0-50.75c-7.85,0-14.24,10.87-14.24,24.23s6.39,24.23,14.24,24.23,14.24-10.87,14.24-24.23-6.39-24.23-14.24-24.23Z"/>
  </g>
</svg>