<?xml version="1.0" encoding="UTF-8"?>
<svg id="Layer_1" data-name="Layer 1" xmlns="http://www.w3.org/2000/svg" viewBox="0 0 1200.5 630.25">
  <defs>
    <style>
      .cls-1 {
        stroke: #231f20;
        stroke-miterlimit: 10;
        stroke-width: .5px;
      }

      .cls-1, .cls-2 {
        fill: #231f20;
      }
    </style>
  </defs>
  <g>
    <path class="cls-1" d="m56.15,596.03c.55,0,1.02.47,1.43,1.42l3.93,9.03c-3,7.4-6.64,13.17-10.91,17.31-4.28,4.14-9.45,6.21-15.51,6.21-5.25,0-10.02-1.94-14.31-5.82-4.29-3.89-7.95-9.33-10.99-16.34-3.03-7-5.38-15.41-7.05-25.2-1.67-9.8-2.5-20.58-2.5-32.34s.87-22.54,2.61-32.34c1.74-9.8,4.18-18.22,7.33-25.26,3.15-7.04,6.92-12.51,11.32-16.39,4.39-3.89,9.25-5.83,14.56-5.83s9.81,1.78,13.8,5.34c3.99,3.56,7.49,8.38,10.53,14.48l-3.27,9.69c-.2.73-.47,1.33-.79,1.8-.32.47-.76.71-1.3.71-.61,0-1.36-.71-2.25-2.12s-2.04-2.99-3.47-4.73c-1.43-1.74-3.22-3.32-5.37-4.74-2.15-1.41-4.79-2.12-7.92-2.12-3.78,0-7.24,1.39-10.37,4.19-3.13,2.8-5.83,6.85-8.1,12.14-2.27,5.3-4.03,11.76-5.29,19.38-1.26,7.62-1.89,16.22-1.89,25.8s.66,18.4,1.97,26.02c1.31,7.62,3.1,14.07,5.37,19.32,2.27,5.26,4.94,9.28,8.02,12.03,3.08,2.76,6.41,4.14,9.99,4.14,2.18,0,4.15-.27,5.9-.81,1.75-.55,3.37-1.4,4.85-2.56s2.86-2.63,4.14-4.41c1.28-1.78,2.55-3.9,3.81-6.37.58-1.09,1.16-1.63,1.74-1.63Z"/>
    <path class="cls-1" d="m179.41,550.3c0,11.69-.87,22.41-2.61,32.17-1.74,9.77-4.19,18.17-7.36,25.21-3.17,7.04-6.98,12.51-11.42,16.39-4.45,3.89-9.36,5.83-14.74,5.83s-10.29-1.94-14.72-5.83c-4.43-3.88-8.23-9.34-11.4-16.39-3.17-7.04-5.62-15.44-7.36-25.21-1.74-9.76-2.61-20.48-2.61-32.17s.87-22.41,2.61-32.18c1.74-9.76,4.19-18.18,7.36-25.26s6.97-12.58,11.4-16.5c4.43-3.92,9.33-5.88,14.72-5.88s10.3,1.96,14.74,5.88c4.45,3.92,8.25,9.42,11.42,16.5,3.17,7.08,5.62,15.5,7.36,25.26,1.74,9.77,2.61,20.49,2.61,32.18Zm-10.17,0c0-9.58-.61-18.18-1.84-25.8-1.23-7.62-2.96-14.06-5.21-19.32-2.25-5.26-4.97-9.31-8.18-12.14-3.2-2.83-6.78-4.24-10.73-4.24s-7.48,1.41-10.68,4.24c-3.2,2.83-5.94,6.88-8.2,12.14s-4.01,11.7-5.24,19.32c-1.23,7.62-1.84,16.22-1.84,25.8s.61,18.16,1.84,25.75c1.23,7.59,2.97,14.01,5.24,19.27,2.27,5.26,5,9.29,8.2,12.08,3.2,2.8,6.76,4.19,10.68,4.19s7.53-1.39,10.73-4.19c3.2-2.79,5.93-6.82,8.18-12.08,2.25-5.26,3.99-11.69,5.21-19.27,1.23-7.58,1.84-16.17,1.84-25.75Z"/>
    <path class="cls-1" d="m297.2,550.3c0,11.69-.87,22.32-2.61,31.9-1.74,9.58-4.19,17.78-7.36,24.61-3.17,6.82-6.98,12.1-11.42,15.84-4.45,3.74-9.36,5.61-14.74,5.61h-27.34v-156.02h27.34c5.38,0,10.3,1.87,14.74,5.61,4.45,3.74,8.25,9.04,11.42,15.9,3.17,6.86,5.62,15.08,7.36,24.66,1.74,9.58,2.61,20.22,2.61,31.9Zm-10.17,0c0-9.58-.61-18.14-1.84-25.7-1.23-7.55-2.96-13.93-5.21-19.16-2.25-5.22-4.97-9.22-8.18-11.98-3.2-2.76-6.78-4.14-10.73-4.14h-17.43v121.84h17.43c3.95,0,7.53-1.38,10.73-4.14,3.2-2.76,5.93-6.73,8.18-11.92,2.25-5.19,3.99-11.56,5.21-19.11,1.23-7.55,1.84-16.12,1.84-25.7Z"/>
    <path class="cls-1" d="m396.79,611.06l-.05,17.2h-45.12v-156.02h45.12v17.21h-35.21v51.82h28.52v16.55h-28.52v53.24h35.26Z"/>
    <path class="cls-1" d="m568.54,596.03c.55,0,1.02.47,1.43,1.42l3.93,9.03c-3,7.4-6.64,13.17-10.91,17.31s-9.44,6.21-15.51,6.21c-5.25,0-10.02-1.94-14.31-5.82-4.29-3.89-7.96-9.33-10.99-16.34-3.03-7-5.38-15.41-7.05-25.2-1.67-9.8-2.5-20.58-2.5-32.34s.87-22.54,2.61-32.34c1.74-9.8,4.18-18.22,7.33-25.26,3.15-7.04,6.93-12.51,11.32-16.39,4.4-3.89,9.25-5.83,14.56-5.83s9.81,1.78,13.8,5.34c3.99,3.56,7.49,8.38,10.53,14.48l-3.27,9.69c-.2.73-.47,1.33-.79,1.8-.32.47-.76.71-1.3.71-.61,0-1.36-.71-2.25-2.12-.89-1.42-2.04-2.99-3.47-4.73-1.43-1.74-3.22-3.32-5.37-4.74-2.15-1.41-4.79-2.12-7.92-2.12-3.78,0-7.24,1.39-10.37,4.19-3.13,2.8-5.83,6.85-8.1,12.14-2.27,5.3-4.03,11.76-5.29,19.38-1.26,7.62-1.89,16.22-1.89,25.8s.66,18.4,1.97,26.02c1.31,7.62,3.1,14.07,5.37,19.32,2.27,5.26,4.94,9.28,8.02,12.03,3.08,2.76,6.41,4.14,9.99,4.14,2.18,0,4.15-.27,5.9-.81,1.75-.55,3.37-1.4,4.85-2.56s2.86-2.63,4.14-4.41c1.28-1.78,2.55-3.9,3.81-6.37.58-1.09,1.16-1.63,1.74-1.63Z"/>
    <path class="cls-1" d="m679.69,628.26h-8.79c-1.81,0-3.14-1.49-3.99-4.47l-19.01-55.74c-.58-1.74-1.2-2.99-1.86-3.76-.67-.76-1.7-1.14-3.09-1.14h-7.51v65.11h-9.86v-156.02h20.7c4.63,0,8.64,1,12.01,2.99,3.37,2,6.16,4.88,8.36,8.66,2.2,3.77,3.82,8.33,4.88,13.67,1.06,5.33,1.58,11.31,1.58,17.91,0,5.51-.41,10.67-1.23,15.46-.82,4.79-2,9.09-3.55,12.9-1.55,3.81-3.44,7.06-5.67,9.75-2.23,2.69-4.76,4.72-7.59,6.09,1.26,1.53,2.35,3.74,3.27,6.64l21.36,61.95Zm-33.83-80.46c2.86,0,5.39-.75,7.59-2.23,2.2-1.48,4.04-3.59,5.52-6.31,1.48-2.72,2.6-5.97,3.35-9.75.75-3.77,1.12-7.95,1.12-12.52,0-9.29-1.43-16.29-4.29-21.01-2.86-4.72-7.15-7.08-12.88-7.08h-10.83v58.9h10.42Z"/>
    <path class="cls-1" d="m789.3,628.26h-7.67c-.89,0-1.6-.47-2.15-1.42-.55-.94-.95-2.14-1.23-3.59l-6.85-37.67h-32.86l-6.85,37.67c-.21,1.31-.6,2.47-1.18,3.48-.58,1.02-1.3,1.52-2.15,1.52h-7.67l29.28-156.02h10.02l29.28,156.02Zm-20.64-57.92l-11.5-63.48c-.34-1.89-.7-4.08-1.07-6.59-.38-2.5-.73-5.17-1.07-8.01-.71,5.88-1.45,10.78-2.2,14.7l-11.5,63.37h27.34Z"/>
    <path class="cls-1" d="m849.03,489.44v54.55h30.1v17.21h-30.1v67.07h-9.91v-156.02h45.12v17.21h-35.21Z"/>
    <path class="cls-1" d="m986.6,489.98h-23.71v138.28h-9.86v-138.28h-23.76v-17.75h57.34v17.75Z"/>
    <path class="cls-1" d="m1082.77,611.06l-.05,17.2h-45.12v-156.02h45.12v17.21h-35.21v51.82h28.52v16.55h-28.52v53.24h35.26Z"/>
    <path class="cls-1" d="m1200.25,550.3c0,11.69-.87,22.32-2.61,31.9-1.74,9.58-4.19,17.78-7.36,24.61-3.17,6.82-6.97,12.1-11.42,15.84-4.44,3.74-9.36,5.61-14.74,5.61h-27.34v-156.02h27.34c5.38,0,10.3,1.87,14.74,5.61,4.45,3.74,8.25,9.04,11.42,15.9,3.17,6.86,5.62,15.08,7.36,24.66,1.74,9.58,2.61,20.22,2.61,31.9Zm-10.17,0c0-9.58-.61-18.14-1.84-25.7-1.23-7.55-2.96-13.93-5.21-19.16-2.25-5.22-4.97-9.22-8.18-11.98-3.2-2.76-6.78-4.14-10.73-4.14h-17.43v121.84h17.43c3.95,0,7.53-1.38,10.73-4.14,3.2-2.76,5.93-6.73,8.18-11.92,2.25-5.19,3.99-11.56,5.21-19.11,1.23-7.55,1.84-16.12,1.84-25.7Z"/>
  </g>
  <g>
    <path class="cls-2" d="m675.76,273.24l-3.04,6.18c-11.67,23.74-24.04,34.8-38.92,34.8-33.94,0-55.02-50.34-55.02-131.38s21.08-129.31,55.02-129.31c13.47,0,24.82,9.23,34.71,28.22l3.1,5.96,19.34-38.71-2.61-5.09c-8.4-16.4-26.65-43.9-54.54-43.9-52.79,0-88.26,73.89-88.26,183.88s34.55,183.88,85.97,183.88c24.83,0,44.86-16.99,61.24-51.93l2.42-5.17-19.42-37.41Z"/>
    <g>
      <ellipse class="cls-2" cx="758.01" cy="183.88" rx="11.63" ry="24.3"/>
      <path class="cls-2" d="m758.01,209.27c-6.7,0-12.16-11.39-12.16-25.39s5.45-25.39,12.16-25.39,12.15,11.39,12.15,25.39-5.45,25.39-12.15,25.39Zm0-48.6c-6.13,0-11.11,10.41-11.11,23.21s4.98,23.21,11.11,23.21,11.11-10.41,11.11-23.21-4.98-23.21-11.11-23.21Z"/>
    </g>
    <g>
      <ellipse class="cls-2" cx="482.71" cy="183.88" rx="11.63" ry="24.3"/>
      <path class="cls-2" d="m482.71,209.27c-6.7,0-12.15-11.39-12.15-25.39s5.45-25.39,12.15-25.39,12.15,11.39,12.15,25.39-5.45,25.39-12.15,25.39Zm0-48.6c-6.13,0-11.11,10.41-11.11,23.21s4.98,23.21,11.11,23.21,11.11-10.41,11.11-23.21-4.98-23.21-11.11-23.21Z"/>
    </g>
  </g>
</svg>