<?xml version="1.0" encoding="UTF-8"?>
<svg id="Layer_1" data-name="Layer 1" xmlns="http://www.w3.org/2000/svg" viewBox="0 0 32 32">
  <defs>
    <style>
      .cls-1 {
        fill: #231f20;
      }
    </style>
  </defs>
  <path class="cls-1" d="m21.92,23.78l-.32.54c-1.25,2.07-2.57,3.03-4.16,3.03-3.62,0-5.88-4.38-5.88-11.43s2.25-11.25,5.88-11.25c1.44,0,2.65.8,3.71,2.46l.33.52,2.07-3.37-.28-.44c-.9-1.43-2.85-3.82-5.83-3.82-5.64,0-9.43,6.43-9.43,16s3.69,16,9.18,16c2.65,0,4.79-1.48,6.54-4.52l.26-.45-2.07-3.26Z"/>
  <g>
    <ellipse class="cls-1" cx="30.7" cy="16" rx="1.24" ry="2.11"/>
    <path class="cls-1" d="m30.7,18.21c-.72,0-1.3-.99-1.3-2.21s.58-2.21,1.3-2.21,1.3.99,1.3,2.21-.58,2.21-1.3,2.21Zm0-4.23c-.65,0-1.19.91-1.19,2.02s.53,2.02,1.19,2.02,1.19-.91,1.19-2.02-.53-2.02-1.19-2.02Z"/>
  </g>
  <g>
    <ellipse class="cls-1" cx="1.3" cy="16" rx="1.24" ry="2.11"/>
    <path class="cls-1" d="m1.3,18.21c-.72,0-1.3-.99-1.3-2.21s.58-2.21,1.3-2.21,1.3.99,1.3,2.21-.58,2.21-1.3,2.21Zm0-4.23c-.65,0-1.19.91-1.19,2.02s.53,2.02,1.19,2.02,1.19-.91,1.19-2.02-.53-2.02-1.19-2.02Z"/>
  </g>
</svg>