<?xml version="1.0" encoding="utf-8"?>
<!-- Generator: Adobe Illustrator 27.5.0, SVG Export Plug-In . SVG Version: 6.00 Build 0)  -->
<svg version="1.1" id="Layer_1" xmlns="http://www.w3.org/2000/svg" xmlns:xlink="http://www.w3.org/1999/xlink" x="0px" y="0px"
	 viewBox="0 0 1200 630" style="enable-background:new 0 0 1200 630;" xml:space="preserve">
<style type="text/css">
	.st0{fill:#231F20;stroke:#231F20;stroke-width:0.5;stroke-miterlimit:10;}
	.st1{fill:#231F20;}
</style>
<g>
	<path class="st0" d="M59.3,579.2c0.4,0,1,0.5,1.4,1.4l3.9,9c-3,7.4-6.6,13.2-10.8,17.3s-9.5,6.2-15.3,6.2c-5.2,0-9.9-1.9-14.2-5.8
		c-4.3-3.9-7.9-9.3-10.9-16.3s-5.3-15.4-7-25.2S4,545.2,4,533.5c0-11.7,0.9-22.5,2.6-32.3s4.1-18.2,7.3-25.3s6.9-12.5,11.2-16.4
		c4.4-3.9,9.2-5.8,14.3-5.8s9.7,1.8,13.7,5.3s7.5,8.4,10.5,14.5l-3.2,9.7c-0.2,0.7-0.4,1.3-0.8,1.8s-0.8,0.7-1.3,0.7
		c-0.6,0-1.3-0.7-2.2-2.1c-0.9-1.4-2-3-3.4-4.7c-1.4-1.7-3.2-3.3-5.3-4.7c-2.1-1.4-4.8-2.1-7.9-2.1c-3.7,0-7.2,1.4-10.3,4.2
		s-5.8,6.9-8,12.1c-2.3,5.3-4,11.8-5.2,19.4c-1.2,7.6-1.8,16.2-1.8,25.8c0,9.6,0.7,18.4,2,26c1.3,7.6,3.1,14.1,5.3,19.3
		c2.3,5.3,4.9,9.3,8,12c3.1,2.8,6.5,4.1,9.9,4.1c2.2,0,4.1-0.3,5.9-0.8c1.7-0.5,3.3-1.4,4.8-2.6c1.4-1.2,2.8-2.6,4.1-4.4
		c1.3-1.8,2.4-3.9,3.8-6.4C58.2,579.7,58.8,579.2,59.3,579.2L59.3,579.2L59.3,579.2z"/>
	<path class="st0" d="M181.6,533.5c0,11.7-0.9,22.4-2.6,32.2c-1.7,9.8-4.2,18.2-7.3,25.2c-3.1,7-6.9,12.5-11.3,16.4
		c-4.4,3.9-9.3,5.8-14.6,5.8c-5.3,0-10.2-1.9-14.6-5.8c-4.4-3.9-8.2-9.3-11.3-16.4c-3.1-7-5.6-15.4-7.3-25.2
		c-1.7-9.8-2.6-20.5-2.6-32.2s0.9-22.4,2.6-32.2c1.7-9.8,4.2-18.2,7.3-25.3c3.1-7.1,6.9-12.6,11.3-16.5c4.4-3.9,9.3-5.9,14.6-5.9
		c5.3,0,10.2,2,14.6,5.9c4.4,3.9,8.2,9.4,11.3,16.5c3.1,7.1,5.6,15.5,7.3,25.3C180.8,511.1,181.6,521.8,181.6,533.5z M171.5,533.5
		c0-9.6-0.6-18.2-1.8-25.8c-1.2-7.6-2.9-14.1-5.2-19.3c-2.3-5.2-4.9-9.3-8.1-12.1c-3.2-2.8-6.7-4.2-10.6-4.2s-7.5,1.4-10.6,4.2
		c-3.2,2.8-5.9,6.9-8.1,12.1s-4,11.7-5.2,19.3c-1.2,7.6-1.8,16.2-1.8,25.8s0.6,18.2,1.8,25.8c1.2,7.6,2.9,14,5.2,19.3
		s5,9.3,8.1,12.1c3.2,2.8,6.7,4.2,10.6,4.2s7.5-1.4,10.6-4.2c3.2-2.8,5.9-6.8,8.1-12.1c2.2-5.3,4-11.7,5.2-19.3
		C170.9,551.6,171.5,543.1,171.5,533.5L171.5,533.5z"/>
	<path class="st0" d="M298.4,533.5c0,11.7-0.9,22.3-2.6,31.9c-1.7,9.6-4.2,17.8-7.3,24.6c-3.1,6.8-6.9,12.1-11.3,15.8
		c-4.4,3.7-9.3,5.6-14.6,5.6h-27.1v-156h27.1c5.3,0,10.2,1.9,14.6,5.6s8.2,9,11.3,15.9c3.1,6.9,5.6,15.1,7.3,24.7
		C297.5,511.2,298.4,521.8,298.4,533.5L298.4,533.5L298.4,533.5z M288.4,533.5c0-9.6-0.6-18.1-1.8-25.7c-1.2-7.5-2.9-13.9-5.2-19.2
		c-2.2-5.2-4.9-9.2-8.1-12c-3.2-2.8-6.7-4.1-10.6-4.1h-17.4v121.8h17.4c3.9,0,7.5-1.4,10.6-4.1c3.2-2.8,5.9-6.7,8.1-11.9
		s4-11.6,5.2-19.1C287.7,551.6,288.4,543,288.4,533.5L288.4,533.5L288.4,533.5z"/>
	<path class="st0" d="M397.2,594.2v17.2h-44.8v-156h44.7v17.2h-34.9v51.8h28.3v16.5h-28.3v53.2L397.2,594.2L397.2,594.2L397.2,594.2
		z"/>
	<path class="st0" d="M567.5,579.2c0.4,0,1,0.5,1.4,1.4l3.9,9c-3,7.4-6.6,13.2-10.8,17.3s-9.5,6.2-15.3,6.2c-5.2,0-9.9-1.9-14.2-5.8
		c-4.3-3.9-7.9-9.3-10.9-16.3c-3-7-5.3-15.4-7-25.2c-1.7-9.8-2.4-20.6-2.4-32.3c0-11.7,0.9-22.5,2.6-32.3c1.7-9.8,4.1-18.2,7.3-25.3
		c3.1-7,6.9-12.5,11.2-16.4c4.4-3.9,9.2-5.8,14.3-5.8c5.3,0,9.7,1.8,13.7,5.3c4,3.6,7.5,8.4,10.5,14.5l-3.2,9.7
		c-0.2,0.7-0.4,1.3-0.8,1.8s-0.8,0.7-1.3,0.7s-1.3-0.7-2.2-2.1c-0.9-1.4-2-3-3.4-4.7c-1.4-1.7-3.2-3.3-5.3-4.7
		c-2.1-1.4-4.8-2.1-7.9-2.1c-3.7,0-7.2,1.4-10.3,4.2c-3.1,2.8-5.8,6.9-8,12.1c-2.3,5.3-4,11.8-5.2,19.4c-1.2,7.6-1.9,16.2-1.9,25.8
		s0.7,18.4,2,26c1.3,7.6,3.1,14.1,5.3,19.3c2.3,5.3,4.9,9.3,8,12c3.1,2.8,6.5,4.1,9.9,4.1c2.2,0,4.1-0.3,5.9-0.8
		c1.7-0.5,3.3-1.4,4.8-2.6c1.4-1.2,2.8-2.6,4.1-4.4c1.3-1.8,2.4-3.9,3.8-6.4C566.3,579.7,567,579.2,567.5,579.2L567.5,579.2
		L567.5,579.2z"/>
	<path class="st0" d="M677.8,611.4h-8.7c-1.8,0-3.1-1.5-4-4.5l-18.9-55.7c-0.6-1.7-1.2-3-1.8-3.8c-0.7-0.8-1.7-1.1-3.1-1.1h-7.5
		v65.1H624v-156h20.5c4.6,0,8.6,1,11.9,3c3.3,2,6.1,4.9,8.3,8.7c2.2,3.8,3.8,8.3,4.8,13.7c1.1,5.3,1.6,11.3,1.6,17.9
		c0,5.5-0.4,10.7-1.2,15.5c-0.8,4.8-2,9.1-3.4,12.9s-3.4,7.1-5.6,9.8c-2.1,2.7-4.7,4.7-7.5,6.1c1.2,1.5,2.3,3.7,3.2,6.6L677.8,611.4
		L677.8,611.4L677.8,611.4z M644.3,531c2.8,0,5.3-0.8,7.5-2.2c2.2-1.5,4-3.6,5.5-6.3c1.4-2.7,2.6-6,3.3-9.8c0.7-3.8,1.1-8,1.1-12.5
		c0-9.3-1.4-16.3-4.3-21c-2.8-4.7-7.1-7.1-12.8-7.1h-10.7V531H644.3z"/>
	<path class="st0" d="M786.4,611.4h-7.6c-0.9,0-1.6-0.5-2.1-1.4c-0.6-0.9-0.9-2.1-1.2-3.6l-6.8-37.7h-32.6l-6.8,37.7
		c-0.2,1.3-0.6,2.5-1.2,3.5c-0.6,1-1.3,1.5-2.1,1.5h-7.6l29-156h9.9L786.4,611.4L786.4,611.4L786.4,611.4z M766,553.5L754.5,490
		c-0.3-1.9-0.7-4.1-1.1-6.6c-0.4-2.5-0.7-5.2-1.1-8c-0.7,5.9-1.4,10.8-2.2,14.7l-11.5,63.4H766L766,553.5z"/>
	<path class="st0" d="M845.7,472.6v54.5h29.8v17.2h-29.8v67.1h-9.8v-156h44.7v17.2L845.7,472.6L845.7,472.6z"/>
	<path class="st0" d="M982.1,473.2h-23.5v138.3h-9.8V473.2h-23.6v-17.8h56.9L982.1,473.2L982.1,473.2z"/>
	<path class="st0" d="M1077.5,594.2v17.2h-44.7v-156h44.7v17.2h-34.9v51.8h28.3v16.5h-28.3v53.2L1077.5,594.2L1077.5,594.2z"/>
	<path class="st0" d="M1193.9,533.5c0,11.7-0.9,22.3-2.6,31.9c-1.7,9.6-4.2,17.8-7.3,24.6c-3.1,6.8-6.9,12.1-11.3,15.8
		c-4.4,3.7-9.3,5.6-14.6,5.6H1131v-156h27.1c5.3,0,10.2,1.9,14.6,5.6c4.3,3.7,8.2,9,11.3,15.9c3.1,6.9,5.6,15.1,7.3,24.7
		C1193.1,511.2,1193.9,521.8,1193.9,533.5L1193.9,533.5L1193.9,533.5z M1183.9,533.5c0-9.6-0.6-18.1-1.8-25.7
		c-1.2-7.5-2.9-13.9-5.2-19.2c-2.2-5.2-4.9-9.2-8.1-12s-6.7-4.1-10.6-4.1h-17.4v121.8h17.4c3.9,0,7.5-1.4,10.6-4.1
		c3.2-2.8,5.9-6.7,8.1-11.9s4-11.6,5.2-19.1C1183.3,551.6,1183.9,543,1183.9,533.5L1183.9,533.5L1183.9,533.5z"/>
</g>
<g>
	<path class="st1" d="M687.5,285.4l-3.2,6.4c-12.5,24.4-25.6,35.8-41.5,35.8c-36.2,0-58.7-51.7-58.7-135.2s22.5-133,58.7-133
		c14.4,0,26.5,9.5,37.1,29l3.3,6.2l20.6-39.8l-2.8-5.2c-9-16.9-28.4-45.2-58.2-45.2c-56.4,0-94.3,76-94.3,189.2
		s36.8,189.2,91.8,189.2c26.5,0,48-17.5,65.4-53.4l2.6-5.3L687.5,285.4L687.5,285.4L687.5,285.4z"/>
	<g>
		<ellipse class="st1" cx="775.4" cy="193.6" rx="12.4" ry="25"/>
		<path class="st1" d="M775.4,219.7c-7.2,0-13-11.7-13-26.1c0-14.4,5.9-26.1,13-26.1s13,11.7,13,26.1
			C788.5,208,782.6,219.7,775.4,219.7z M775.4,169.7c-6.5,0-11.9,10.7-11.9,23.9c0,13.2,5.3,23.9,11.9,23.9s11.9-10.7,11.9-23.9
			C787.3,180.4,781.9,169.7,775.4,169.7z"/>
	</g>
	<g>
		<ellipse class="st1" cx="481.4" cy="193.6" rx="12.4" ry="25"/>
		<path class="st1" d="M481.4,219.7c-7.2,0-12.9-11.7-12.9-26.1c0-14.4,5.9-26.1,12.9-26.1s12.9,11.7,12.9,26.1
			C494.3,208,488.6,219.7,481.4,219.7z M481.4,169.7c-6.5,0-11.9,10.7-11.9,23.9c0,13.2,5.3,23.9,11.9,23.9s11.9-10.7,11.9-23.9
			C493.3,180.4,487.9,169.7,481.4,169.7z"/>
	</g>
</g>
</svg>
