<?xml version="1.0" encoding="UTF-8"?>
<svg id="Layer_1" data-name="Layer 1" xmlns="http://www.w3.org/2000/svg" viewBox="0 0 192 192">
  <defs>
    <style>
      .cls-1 {
        fill: #231f20;
      }
    </style>
  </defs>
  <path class="cls-1" d="m131.5,142.66l-1.95,3.23c-7.48,12.39-15.4,18.17-24.94,18.17-21.75,0-35.26-26.28-35.26-68.59s13.51-67.51,35.26-67.51c8.63,0,15.91,4.82,22.24,14.73l1.99,3.11,12.39-20.21-1.67-2.66C134.19,14.36,122.49,0,104.62,0c-33.83,0-56.56,38.58-56.56,96s22.14,96,55.1,96c15.91,0,28.75-8.87,39.24-27.11l1.55-2.7-12.44-19.53Z"/>
  <g>
    <ellipse class="cls-1" cx="184.21" cy="96" rx="7.45" ry="12.69"/>
    <path class="cls-1" d="m184.21,109.26c-4.3,0-7.79-5.95-7.79-13.26s3.49-13.26,7.79-13.26,7.79,5.95,7.79,13.26-3.49,13.26-7.79,13.26Zm0-25.37c-3.93,0-7.12,5.44-7.12,12.12s3.19,12.12,7.12,12.12,7.12-5.44,7.12-12.12-3.19-12.12-7.12-12.12Z"/>
  </g>
  <g>
    <ellipse class="cls-1" cx="7.79" cy="96" rx="7.45" ry="12.69"/>
    <path class="cls-1" d="m7.79,109.26c-4.3,0-7.79-5.95-7.79-13.26s3.49-13.26,7.79-13.26,7.79,5.95,7.79,13.26-3.49,13.26-7.79,13.26Zm0-25.37c-3.93,0-7.12,5.44-7.12,12.12s3.19,12.12,7.12,12.12,7.12-5.44,7.12-12.12-3.19-12.12-7.12-12.12Z"/>
  </g>
</svg>