<?xml version="1.0" encoding="utf-8"?>
<!-- Generator: Adobe Illustrator 27.5.0, SVG Export Plug-In . SVG Version: 6.00 Build 0)  -->
<svg version="1.1" id="Layer_1" xmlns="http://www.w3.org/2000/svg" xmlns:xlink="http://www.w3.org/1999/xlink" x="0px" y="0px"
	 viewBox="0 0 1080 566" style="enable-background:new 0 0 1080 566;" xml:space="preserve">
<style type="text/css">
	.st0{fill:#231F20;stroke:#231F20;stroke-width:0.5;stroke-miterlimit:10;}
	.st1{fill:#231F20;}
</style>
<g>
	<path class="st0" d="M53.8,528c0.4,0,0.9,0.5,1.3,1.4l3.5,9c-2.7,7.4-5.9,13.2-9.7,17.3c-3.8,4.1-8.5,6.2-13.8,6.2
		c-4.7,0-8.9-1.9-12.8-5.8c-3.9-3.9-7.1-9.3-9.8-16.3s-4.8-15.4-6.3-25.2c-1.5-9.8-2.2-20.6-2.2-32.3s0.8-22.5,2.3-32.3
		s3.7-18.2,6.6-25.3s6.2-12.5,10.1-16.4c4-3.9,8.3-5.8,12.9-5.8s8.7,1.8,12.3,5.3s6.7,8.4,9.4,14.5l-2.9,9.7
		c-0.2,0.7-0.4,1.3-0.7,1.8c-0.3,0.5-0.7,0.7-1.2,0.7c-0.5,0-1.2-0.7-2-2.1c-0.8-1.4-1.8-3-3.1-4.7c-1.3-1.7-2.9-3.3-4.8-4.7
		c-1.9-1.4-4.3-2.1-7.1-2.1c-3.3,0-6.5,1.4-9.3,4.2s-5.2,6.9-7.2,12.1c-2.1,5.3-3.6,11.8-4.7,19.4S13,472.8,13,482.4
		s0.6,18.4,1.8,26c1.2,7.6,2.8,14.1,4.8,19.3c2.1,5.3,4.4,9.3,7.2,12c2.8,2.8,5.8,4.1,8.9,4.1c2,0,3.7-0.3,5.3-0.8
		c1.5-0.5,3-1.4,4.3-2.6c1.3-1.2,2.5-2.6,3.7-4.4c1.2-1.8,2.2-3.9,3.4-6.4C52.8,528.5,53.3,528,53.8,528L53.8,528L53.8,528z"/>
	<path class="st0" d="M163.7,482.3c0,11.7-0.8,22.4-2.3,32.2c-1.5,9.8-3.8,18.2-6.6,25.2s-6.2,12.5-10.2,16.4
		c-4,3.9-8.4,5.8-13.1,5.8c-4.8,0-9.2-1.9-13.1-5.8c-4-3.9-7.4-9.3-10.2-16.4c-2.8-7-5-15.4-6.6-25.2c-1.5-9.8-2.3-20.5-2.3-32.2
		s0.8-22.4,2.3-32.2c1.5-9.8,3.8-18.2,6.6-25.3c2.8-7.1,6.2-12.6,10.2-16.5c4-3.9,8.4-5.9,13.1-5.9c4.8,0,9.2,2,13.1,5.9
		c4,3.9,7.4,9.4,10.2,16.5s5,15.5,6.6,25.3S163.7,470.6,163.7,482.3z M154.6,482.3c0-9.6-0.5-18.2-1.6-25.8
		c-1.1-7.6-2.6-14.1-4.7-19.3s-4.4-9.3-7.3-12.1c-2.9-2.8-6-4.2-9.5-4.2s-6.7,1.4-9.5,4.2c-2.9,2.8-5.3,6.9-7.3,12.1
		c-2,5.2-3.6,11.7-4.7,19.3c-1.1,7.6-1.6,16.2-1.6,25.8s0.5,18.2,1.6,25.8c1.1,7.6,2.6,14,4.7,19.3c2.1,5.3,4.5,9.3,7.3,12.1
		c2.9,2.8,6,4.2,9.5,4.2c3.5,0,6.7-1.4,9.5-4.2c2.9-2.8,5.3-6.8,7.3-12.1c2-5.3,3.6-11.7,4.7-19.3
		C154.1,500.4,154.6,491.9,154.6,482.3L154.6,482.3z"/>
	<path class="st0" d="M268.7,482.3c0,11.7-0.8,22.3-2.3,31.9c-1.5,9.6-3.8,17.8-6.6,24.6s-6.2,12.1-10.2,15.8s-8.4,5.6-13.1,5.6
		h-24.4v-156h24.4c4.8,0,9.2,1.9,13.1,5.6s7.4,9,10.2,15.9c2.8,6.9,5,15.1,6.6,24.7C267.9,460,268.7,470.6,268.7,482.3L268.7,482.3
		L268.7,482.3z M259.7,482.3c0-9.6-0.5-18.1-1.6-25.7c-1.1-7.5-2.6-13.9-4.7-19.2c-2-5.2-4.4-9.2-7.3-12s-6-4.1-9.5-4.1H221v121.8
		h15.6c3.5,0,6.7-1.4,9.5-4.1c2.9-2.8,5.3-6.7,7.3-11.9c2-5.2,3.6-11.6,4.7-19.1C259.1,500.4,259.7,491.8,259.7,482.3L259.7,482.3
		L259.7,482.3z"/>
	<path class="st0" d="M357.6,543v17.2h-40.3v-156h40.2v17.2h-31.4v51.8h25.4v16.5h-25.4v53.2L357.6,543L357.6,543L357.6,543z"/>
	<path class="st0" d="M510.7,528c0.4,0,0.9,0.5,1.3,1.4l3.5,9c-2.7,7.4-5.9,13.2-9.7,17.3c-3.8,4.1-8.5,6.2-13.8,6.2
		c-4.7,0-8.9-1.9-12.8-5.8c-3.9-3.9-7.1-9.3-9.8-16.3s-4.8-15.4-6.3-25.2c-1.5-9.8-2.2-20.6-2.2-32.3s0.8-22.5,2.3-32.3
		c1.5-9.8,3.7-18.2,6.6-25.3c2.8-7,6.2-12.5,10.1-16.4c4-3.9,8.3-5.8,12.9-5.8c4.8,0,8.7,1.8,12.3,5.3c3.6,3.6,6.7,8.4,9.4,14.5
		l-2.9,9.7c-0.2,0.7-0.4,1.3-0.7,1.8c-0.3,0.5-0.7,0.7-1.2,0.7c-0.5,0-1.2-0.7-2-2.1s-1.8-3-3.1-4.7s-2.9-3.3-4.8-4.7
		c-1.9-1.4-4.3-2.1-7.1-2.1c-3.3,0-6.5,1.4-9.3,4.2c-2.8,2.8-5.2,6.9-7.2,12.1c-2.1,5.3-3.6,11.8-4.7,19.4
		c-1.1,7.6-1.7,16.2-1.7,25.8s0.6,18.4,1.8,26c1.2,7.6,2.8,14.1,4.8,19.3c2.1,5.3,4.4,9.3,7.2,12c2.8,2.8,5.8,4.1,8.9,4.1
		c2,0,3.7-0.3,5.3-0.8c1.5-0.5,3-1.4,4.3-2.6c1.3-1.2,2.5-2.6,3.7-4.4c1.2-1.8,2.2-3.9,3.4-6.4C509.6,528.5,510.2,528,510.7,528
		L510.7,528L510.7,528z"/>
	<path class="st0" d="M609.8,560.2H602c-1.6,0-2.8-1.5-3.6-4.5l-17-55.7c-0.5-1.7-1.1-3-1.6-3.8c-0.6-0.8-1.5-1.1-2.8-1.1h-6.7v65.1
		h-8.8v-156h18.4c4.1,0,7.7,1,10.7,3c3,2,5.5,4.9,7.5,8.7c2,3.8,3.4,8.3,4.3,13.7c1,5.3,1.4,11.3,1.4,17.9c0,5.5-0.4,10.7-1.1,15.5
		c-0.7,4.8-1.8,9.1-3.1,12.9s-3.1,7.1-5,9.8s-4.2,4.7-6.7,6.1c1.1,1.5,2.1,3.7,2.9,6.6L609.8,560.2L609.8,560.2L609.8,560.2z
		 M579.7,479.8c2.5,0,4.8-0.8,6.7-2.2c2-1.5,3.6-3.6,4.9-6.3s2.3-6,3-9.8c0.6-3.8,1-8,1-12.5c0-9.3-1.3-16.3-3.9-21
		c-2.5-4.7-6.4-7.1-11.5-7.1h-9.6v58.9H579.7z"/>
	<path class="st0" d="M707.5,560.2h-6.8c-0.8,0-1.4-0.5-1.9-1.4s-0.8-2.1-1.1-3.6l-6.1-37.7h-29.3l-6.1,37.7
		c-0.2,1.3-0.5,2.5-1.1,3.5c-0.5,1-1.2,1.5-1.9,1.5h-6.8l26.1-156h8.9L707.5,560.2L707.5,560.2L707.5,560.2z M689.1,502.3
		l-10.3-63.5c-0.3-1.9-0.6-4.1-1-6.6s-0.6-5.2-1-8c-0.6,5.9-1.3,10.8-2,14.7l-10.3,63.4H689.1L689.1,502.3z"/>
	<path class="st0" d="M760.8,421.4v54.5h26.8v17.2h-26.8v67.1h-8.8v-156h40.2v17.2H760.8L760.8,421.4z"/>
	<path class="st0" d="M883.4,422h-21.1v138.3h-8.8V422h-21.2v-17.8h51.2L883.4,422L883.4,422z"/>
	<path class="st0" d="M969.2,543v17.2H929v-156h40.2v17.2h-31.4v51.8h25.4v16.5h-25.4v53.2L969.2,543L969.2,543z"/>
	<path class="st0" d="M1073.9,482.3c0,11.7-0.8,22.3-2.3,31.9c-1.5,9.6-3.8,17.8-6.6,24.6c-2.8,6.8-6.2,12.1-10.2,15.8
		s-8.4,5.6-13.1,5.6h-24.4v-156h24.4c4.8,0,9.2,1.9,13.1,5.6s7.4,9,10.2,15.9c2.8,6.9,5,15.1,6.6,24.7
		C1073.1,460,1073.9,470.6,1073.9,482.3L1073.9,482.3L1073.9,482.3z M1064.9,482.3c0-9.6-0.5-18.1-1.6-25.7
		c-1.1-7.5-2.6-13.9-4.7-19.2c-2-5.2-4.4-9.2-7.3-12s-6-4.1-9.5-4.1h-15.6v121.8h15.6c3.5,0,6.7-1.4,9.5-4.1
		c2.9-2.8,5.3-6.7,7.3-11.9c2-5.2,3.6-11.6,4.7-19.1C1064.3,500.4,1064.9,491.8,1064.9,482.3L1064.9,482.3L1064.9,482.3z"/>
</g>
<g>
	<path class="st1" d="M613.6,278.8l-3,6.2c-11.7,23.7-24,34.8-38.9,34.8c-33.9,0-55-50.3-55-131.4s21.1-129.3,55-129.3
		c13.5,0,24.8,9.2,34.7,28.2l3.1,6l19.3-38.7l-2.6-5.1c-8.4-16.4-26.6-43.9-54.5-43.9c-52.8,0-88.3,73.9-88.3,183.9
		s34.5,183.9,86,183.9c24.8,0,44.9-17,61.2-51.9l2.4-5.2L613.6,278.8L613.6,278.8L613.6,278.8z"/>
	<g>
		<ellipse class="st1" cx="695.9" cy="189.5" rx="11.6" ry="24.3"/>
		<path class="st1" d="M695.9,214.9c-6.7,0-12.2-11.4-12.2-25.4s5.5-25.4,12.2-25.4s12.2,11.4,12.2,25.4S702.6,214.9,695.9,214.9z
			 M695.9,166.3c-6.1,0-11.1,10.4-11.1,23.2s5,23.2,11.1,23.2s11.1-10.4,11.1-23.2S702,166.3,695.9,166.3z"/>
	</g>
	<g>
		<ellipse class="st1" cx="420.6" cy="189.5" rx="11.6" ry="24.3"/>
		<path class="st1" d="M420.6,214.9c-6.7,0-12.1-11.4-12.1-25.4s5.5-25.4,12.1-25.4s12.1,11.4,12.1,25.4S427.3,214.9,420.6,214.9z
			 M420.6,166.3c-6.1,0-11.1,10.4-11.1,23.2s5,23.2,11.1,23.2s11.1-10.4,11.1-23.2S426.7,166.3,420.6,166.3z"/>
	</g>
</g>
</svg>
