<?xml version="1.0" encoding="UTF-8"?>
<svg id="Layer_1" data-name="Layer 1" xmlns="http://www.w3.org/2000/svg" viewBox="0 0 16 16">
  <defs>
    <style>
      .cls-1 {
        fill: #231f20;
      }
    </style>
  </defs>
  <path class="cls-1" d="m10.96,11.89l-.16.27c-.62,1.03-1.28,1.51-2.08,1.51-1.81,0-2.94-2.19-2.94-5.72s1.13-5.63,2.94-5.63c.72,0,1.33.4,1.85,1.23l.17.26,1.03-1.68-.14-.22c-.45-.71-1.42-1.91-2.91-1.91-2.82,0-4.71,3.21-4.71,8s1.85,8,4.59,8c1.33,0,2.4-.74,3.27-2.26l.13-.22-1.04-1.63Z"/>
  <g>
    <ellipse class="cls-1" cx="15.35" cy="8" rx=".62" ry="1.06"/>
    <path class="cls-1" d="m15.35,9.1c-.36,0-.65-.5-.65-1.1s.29-1.1.65-1.1.65.5.65,1.1-.29,1.1-.65,1.1Zm0-2.11c-.33,0-.59.45-.59,1.01s.27,1.01.59,1.01.59-.45.59-1.01-.27-1.01-.59-1.01Z"/>
  </g>
  <g>
    <ellipse class="cls-1" cx=".65" cy="8" rx=".62" ry="1.06"/>
    <path class="cls-1" d="m.65,9.1c-.36,0-.65-.5-.65-1.1s.29-1.1.65-1.1.65.5.65,1.1-.29,1.1-.65,1.1Zm0-2.11c-.33,0-.59.45-.59,1.01s.27,1.01.59,1.01.59-.45.59-1.01-.27-1.01-.59-1.01Z"/>
  </g>
</svg>