<?xml version="1.0" encoding="utf-8"?>
<!-- Generator: Adobe Illustrator 27.5.0, SVG Export Plug-In . SVG Version: 6.00 Build 0)  -->
<svg version="1.1" id="Layer_1" xmlns="http://www.w3.org/2000/svg" xmlns:xlink="http://www.w3.org/1999/xlink" x="0px" y="0px"
	 viewBox="0 0 1200 630" style="enable-background:new 0 0 1200 630;" xml:space="preserve">
<style type="text/css">
	.st0{fill:#231F20;stroke:#231F20;stroke-width:0.5;stroke-miterlimit:10;}
	.st1{fill:#231F20;}
</style>
<g>
	<path class="st0" d="M68.6,579.2c0.4,0,1,0.5,1.4,1.4l3.8,9c-2.9,7.4-6.5,13.2-10.6,17.3s-9.3,6.2-15,6.2c-5.1,0-9.7-1.9-14-5.8
		c-4.2-3.9-7.8-9.3-10.7-16.3s-5.2-15.4-6.9-25.2s-2.4-20.6-2.4-32.3s0.9-22.5,2.6-32.3s4-18.2,7.2-25.3s6.8-12.5,11-16.4
		c4.3-3.9,9-5.8,14.1-5.8s9.5,1.8,13.5,5.3s7.4,8.4,10.3,14.5l-3.1,9.7c-0.2,0.7-0.4,1.3-0.8,1.8s-0.8,0.7-1.3,0.7
		c-0.6,0-1.3-0.7-2.2-2.1s-2-3-3.3-4.7c-1.4-1.7-3.1-3.3-5.2-4.7c-2.1-1.4-4.7-2.1-7.8-2.1c-3.6,0-7.1,1.4-10.1,4.2
		c-3,2.8-5.7,6.9-7.9,12.1c-2.3,5.3-3.9,11.8-5.1,19.4c-1.2,7.6-1.8,16.2-1.8,25.8c0,9.6,0.7,18.4,2,26c1.3,7.6,3,14.1,5.2,19.3
		c2.3,5.3,4.8,9.3,7.9,12c3,2.8,6.4,4.1,9.7,4.1c2.2,0,4-0.3,5.8-0.8c1.7-0.5,3.2-1.4,4.7-2.6c1.4-1.2,2.8-2.6,4-4.4
		c1.3-1.8,2.4-3.9,3.7-6.4C67.5,579.7,68.1,579.2,68.6,579.2L68.6,579.2L68.6,579.2z"/>
	<path class="st0" d="M188.8,533.5c0,11.7-0.9,22.4-2.6,32.2c-1.7,9.8-4.1,18.2-7.2,25.2c-3,7-6.8,12.5-11.1,16.4
		c-4.3,3.9-9.1,5.8-14.4,5.8c-5.2,0-10-1.9-14.4-5.8c-4.3-3.9-8.1-9.3-11.1-16.4c-3-7-5.5-15.4-7.2-25.2c-1.7-9.8-2.6-20.5-2.6-32.2
		s0.9-22.4,2.6-32.2c1.7-9.8,4.1-18.2,7.2-25.3c3-7.1,6.8-12.6,11.1-16.5c4.3-3.9,9.1-5.9,14.4-5.9c5.2,0,10,2,14.4,5.9
		s8.1,9.4,11.1,16.5c3,7.1,5.5,15.5,7.2,25.3C188,511.1,188.8,521.8,188.8,533.5z M178.9,533.5c0-9.6-0.6-18.2-1.8-25.8
		c-1.2-7.6-2.9-14.1-5.1-19.3c-2.3-5.2-4.8-9.3-8-12.1c-3.1-2.8-6.6-4.2-10.4-4.2c-3.8,0-7.4,1.4-10.4,4.2c-3.1,2.8-5.8,6.9-8,12.1
		c-2.2,5.2-3.9,11.7-5.1,19.3c-1.2,7.6-1.8,16.2-1.8,25.8s0.6,18.2,1.8,25.8s2.9,14,5.1,19.3c2.3,5.3,4.9,9.3,8,12.1
		c3.1,2.8,6.6,4.2,10.4,4.2c3.8,0,7.4-1.4,10.4-4.2c3.1-2.8,5.8-6.8,8-12.1c2.2-5.3,3.9-11.7,5.1-19.3
		C178.3,551.6,178.9,543.1,178.9,533.5L178.9,533.5z"/>
	<path class="st0" d="M303.6,533.5c0,11.7-0.9,22.3-2.6,31.9c-1.7,9.6-4.1,17.8-7.2,24.6s-6.8,12.1-11.1,15.8
		c-4.3,3.7-9.1,5.6-14.4,5.6h-26.6v-156h26.6c5.2,0,10,1.9,14.4,5.6c4.3,3.7,8.1,9,11.1,15.9c3,6.9,5.5,15.1,7.2,24.7
		C302.7,511.2,303.6,521.8,303.6,533.5L303.6,533.5L303.6,533.5z M293.8,533.5c0-9.6-0.6-18.1-1.8-25.7c-1.2-7.5-2.9-13.9-5.1-19.2
		c-2.2-5.2-4.8-9.2-8-12c-3.1-2.8-6.6-4.1-10.4-4.1h-17.1v121.8h17.1c3.8,0,7.4-1.4,10.4-4.1c3.1-2.8,5.8-6.7,8-11.9
		c2.2-5.2,3.9-11.6,5.1-19.1C293.1,551.6,293.8,543,293.8,533.5L293.8,533.5L293.8,533.5z"/>
	<path class="st0" d="M400.8,594.2v17.2h-44v-156h43.9v17.2h-34.3v51.8h27.8v16.5h-27.8v53.2L400.8,594.2L400.8,594.2L400.8,594.2z"
		/>
	<path class="st0" d="M568.2,579.2c0.4,0,1,0.5,1.4,1.4l3.8,9c-2.9,7.4-6.5,13.2-10.6,17.3s-9.3,6.2-15,6.2c-5.1,0-9.7-1.9-14-5.8
		c-4.2-3.9-7.8-9.3-10.7-16.3s-5.2-15.4-6.9-25.2s-2.4-20.6-2.4-32.3s0.9-22.5,2.6-32.3s4-18.2,7.2-25.3c3-7,6.8-12.5,11-16.4
		c4.3-3.9,9-5.8,14.1-5.8c5.2,0,9.5,1.8,13.5,5.3c3.9,3.6,7.4,8.4,10.3,14.5l-3.1,9.7c-0.2,0.7-0.4,1.3-0.8,1.8s-0.8,0.7-1.3,0.7
		c-0.5,0-1.3-0.7-2.2-2.1s-2-3-3.3-4.7s-3.1-3.3-5.2-4.7c-2.1-1.4-4.7-2.1-7.8-2.1c-3.6,0-7.1,1.4-10.1,4.2c-3,2.8-5.7,6.9-7.9,12.1
		c-2.3,5.3-3.9,11.8-5.1,19.4c-1.2,7.6-1.9,16.2-1.9,25.8s0.7,18.4,2,26c1.3,7.6,3,14.1,5.2,19.3c2.3,5.3,4.8,9.3,7.9,12
		c3,2.8,6.4,4.1,9.7,4.1c2.2,0,4-0.3,5.8-0.8c1.7-0.5,3.2-1.4,4.7-2.6c1.4-1.2,2.8-2.6,4-4.4c1.3-1.8,2.4-3.9,3.7-6.4
		C567,579.7,567.7,579.2,568.2,579.2L568.2,579.2L568.2,579.2z"/>
	<path class="st0" d="M676.6,611.4h-8.6c-1.8,0-3-1.5-3.9-4.5l-18.6-55.7c-0.6-1.7-1.2-3-1.8-3.8c-0.7-0.8-1.7-1.1-3-1.1h-7.4v65.1
		h-9.6v-156h20.2c4.5,0,8.5,1,11.7,3c3.2,2,6,4.9,8.2,8.7c2.2,3.8,3.7,8.3,4.7,13.7c1.1,5.3,1.6,11.3,1.6,17.9
		c0,5.5-0.4,10.7-1.2,15.5c-0.8,4.8-2,9.1-3.3,12.9s-3.3,7.1-5.5,9.8c-2.1,2.7-4.6,4.7-7.4,6.1c1.2,1.5,2.3,3.7,3.1,6.6L676.6,611.4
		L676.6,611.4L676.6,611.4z M643.7,531c2.8,0,5.2-0.8,7.4-2.2c2.2-1.5,3.9-3.6,5.4-6.3c1.4-2.7,2.6-6,3.2-9.8s1.1-8,1.1-12.5
		c0-9.3-1.4-16.3-4.2-21c-2.8-4.7-7-7.1-12.6-7.1h-10.5V531H643.7z"/>
	<path class="st0" d="M783.4,611.4h-7.5c-0.9,0-1.6-0.5-2.1-1.4c-0.6-0.9-0.9-2.1-1.2-3.6l-6.7-37.7h-32l-6.7,37.7
		c-0.2,1.3-0.6,2.5-1.2,3.5c-0.6,1-1.3,1.5-2.1,1.5h-7.5l28.5-156h9.7L783.4,611.4L783.4,611.4L783.4,611.4z M763.3,553.5L752,490
		c-0.3-1.9-0.7-4.1-1.1-6.6s-0.7-5.2-1.1-8c-0.7,5.9-1.4,10.8-2.2,14.7l-11.3,63.4H763.3L763.3,553.5z"/>
	<path class="st0" d="M841.7,472.6v54.5H871v17.2h-29.3v67.1H832v-156H876v17.2L841.7,472.6L841.7,472.6z"/>
	<path class="st0" d="M975.8,473.2h-23.1v138.3H943V473.2h-23.2v-17.8h55.9L975.8,473.2L975.8,473.2z"/>
	<path class="st0" d="M1069.6,594.2v17.2h-43.9v-156h43.9v17.2h-34.3v51.8h27.8v16.5h-27.8v53.2L1069.6,594.2L1069.6,594.2z"/>
	<path class="st0" d="M1184,533.5c0,11.7-0.9,22.3-2.6,31.9c-1.7,9.6-4.1,17.8-7.2,24.6c-3,6.8-6.8,12.1-11.1,15.8
		s-9.1,5.6-14.4,5.6h-26.6v-156h26.6c5.2,0,10,1.9,14.4,5.6c4.2,3.7,8.1,9,11.1,15.9c3,6.9,5.5,15.1,7.2,24.7
		C1183.2,511.2,1184,521.8,1184,533.5L1184,533.5L1184,533.5z M1174.2,533.5c0-9.6-0.6-18.1-1.8-25.7c-1.2-7.5-2.9-13.9-5.1-19.2
		c-2.2-5.2-4.8-9.2-8-12s-6.6-4.1-10.4-4.1h-17.1v121.8h17.1c3.8,0,7.4-1.4,10.4-4.1c3.1-2.8,5.8-6.7,8-11.9
		c2.2-5.2,3.9-11.6,5.1-19.1C1173.6,551.6,1174.2,543,1174.2,533.5L1174.2,533.5L1174.2,533.5z"/>
</g>
<g>
	<path class="st1" d="M687.5,285.4l-3.2,6.4c-12.5,24.4-25.6,35.8-41.5,35.8c-36.2,0-58.7-51.7-58.7-135.2s22.5-133,58.7-133
		c14.4,0,26.5,9.5,37.1,29l3.3,6.2l20.6-39.8l-2.8-5.2c-9-16.9-28.4-45.2-58.2-45.2c-56.4,0-94.3,76-94.3,189.2
		s36.8,189.2,91.8,189.2c26.5,0,48-17.5,65.4-53.4l2.6-5.3L687.5,285.4L687.5,285.4L687.5,285.4z"/>
	<g>
		<ellipse class="st1" cx="775.4" cy="193.6" rx="12.4" ry="25"/>
		<path class="st1" d="M775.4,219.7c-7.2,0-13-11.7-13-26.1c0-14.4,5.9-26.1,13-26.1s13,11.7,13,26.1
			C788.5,208,782.6,219.7,775.4,219.7z M775.4,169.7c-6.5,0-11.9,10.7-11.9,23.9s5.3,23.9,11.9,23.9s11.9-10.7,11.9-23.9
			C787.3,180.4,781.9,169.7,775.4,169.7z"/>
	</g>
	<g>
		<ellipse class="st1" cx="481.4" cy="193.6" rx="12.4" ry="25"/>
		<path class="st1" d="M481.4,219.7c-7.2,0-12.9-11.7-12.9-26.1c0-14.4,5.9-26.1,12.9-26.1s12.9,11.7,12.9,26.1
			S488.6,219.7,481.4,219.7z M481.4,169.7c-6.5,0-11.9,10.7-11.9,23.9s5.3,23.9,11.9,23.9s11.9-10.7,11.9-23.9
			S487.9,169.7,481.4,169.7z"/>
	</g>
</g>
</svg>
