<?xml version="1.0" encoding="utf-8"?>
<!-- Generator: Adobe Illustrator 27.5.0, SVG Export Plug-In . SVG Version: 6.00 Build 0)  -->
<svg version="1.1" id="Layer_1" xmlns="http://www.w3.org/2000/svg" xmlns:xlink="http://www.w3.org/1999/xlink" x="0px" y="0px"
	 viewBox="0 0 379.8 116.4" style="enable-background:new 0 0 379.8 116.4;" xml:space="preserve">
<style type="text/css">
	.st0{fill:#FFFFFF;}
</style>
<g id="surface1">
	<path class="st0" d="M229.2,14.8c-3.9-2-9-3.1-14.4-3.1c-4.7,0-9.2,0.8-12.8,2.4l-14.3-2.5c0-0.2,0-0.3,0-0.5c0-2.7-2-5.1-5.5-6.9
		c-3.3-1.7-7.5-2.6-12-2.6s-8.8,0.9-12,2.6c-3.5,1.8-5.5,4.3-5.5,6.9c0,2.7,2,5.1,5.5,6.9c3.3,1.7,7.5,2.6,12,2.6s8.8-0.9,12-2.6
		c1.5-0.8,2.7-1.7,3.6-2.6l10.8,2c-1.8,1.7-2.8,3.6-2.8,5.6c0,2.9,2,5.6,5.7,7.7l-9.4,5.6c-0.1,0-0.1-0.1-0.2-0.1
		c-4.9-2.5-11.4-3.9-18.2-3.9c-6.9,0-13.3,1.4-18.3,3.9c-5.2,2.7-8,6.3-8,10.1s2.8,7.4,8,10.1c4.9,2.5,11.2,3.9,18,3.9
		c1,0,2.7,0,2.7-0.1V67c0,0.6,1.4,1,2,0.5l16.4-12.8l0,0c3.4-2.4,5.2-5.3,5.2-8.4c0-2.6-1.3-5-3.7-7.2l10.5-6.3
		c3,0.9,6.5,1.4,10,1.4c5.4,0,10.6-1.1,14.4-3.1c4.2-2.1,6.5-5,6.5-8.2C235.7,19.9,233.4,17,229.2,14.8z M170.2,15.8
		c-5.5,0-10.2-2.2-10.2-4.8s4.7-4.7,10.2-4.7s10.2,2.2,10.2,4.7S175.7,15.8,170.2,15.8z M159.1,52.2c-3.1-1.6-4.8-3.7-4.8-5.8
		s1.7-4.2,4.8-5.8c3.3-1.7,7.8-2.7,12.6-2.7s9.2,0.9,12.6,2.7c3.1,1.6,4.8,3.7,4.8,5.8s-1.7,4.2-4.8,5.8c-3.3,1.7-7.8,2.7-12.6,2.7
		C166.9,54.8,162.5,53.9,159.1,52.2z M223.7,27c-2.4,1.2-5.5,1.9-9,1.9c-3.4,0-6.6-0.7-9-1.9c-2.1-1.1-3.3-2.5-3.3-4s1.2-2.9,3.3-4
		c2.4-1.2,5.5-1.9,9-1.9c3.4,0,6.6,0.7,9,1.9c2.1,1.1,3.3,2.5,3.3,4S225.9,25.9,223.7,27z"/>
	<path class="st0" d="M35,105.7l0.8,5.8c-1.8,0.5-3.8,0.9-6.1,1.2c-2.3,0.2-4.5,0.3-6.5,0.3c-6.5,0-11.5-1.2-15.2-3.5
		s-5.5-6-5.5-10.9c0-5,1.9-8.7,5.8-11.2s9.3-3.7,16.2-3.7c3.3,0,6.8,0.3,10.4,0.9c0,0.7-0.1,1.6-0.3,3c-0.2,1.3-0.4,2.2-0.6,2.8
		h-4.5c-3.3,0-5.9,0-7.7,0.1c-1.9,0.1-3,0.3-3.4,0.5c-0.7,0.5-1.3,1.4-1.6,2.8s-0.6,2.8-0.6,4.1c0,2.2,0.4,4,1.2,5.2
		c0.8,1.2,1.8,2,3.1,2.4c1.2,0.4,3.2,0.6,5.9,0.6C28.6,106.1,31.5,105.9,35,105.7z M55.7,113.1c-5.7,0-10-0.9-12.8-2.8
		s-4.2-4.8-4.2-8.9c0-2.2,0.3-4.2,0.9-5.8c0.6-1.7,1.3-2.9,2.2-3.5c1.1-0.9,3.1-1.6,6-2.1c2.9-0.6,5.7-0.9,8.3-0.9
		c6.1,0,10.5,0.9,13.1,2.7c2.6,1.8,3.9,4.8,3.9,8.8c0,4.3-1.4,7.5-4.2,9.5C66,112.1,61.6,113.1,55.7,113.1z M55.9,107.3
		c1.9,0,3.1-0.5,3.6-1.4c0.6-0.9,0.9-2.5,0.9-4.9c0-1.6-0.1-2.9-0.4-3.7c-0.2-0.9-0.7-1.5-1.3-1.9c-0.7-0.4-1.6-0.6-3-0.6
		c-1.9,0-3,0.1-3.3,0.3c-0.4,0.2-0.7,1-0.9,2.2s-0.4,2.5-0.4,3.8c0,2.3,0.3,3.8,0.9,4.8C52.8,106.8,54,107.3,55.9,107.3z M98,82.6
		l12.2-0.4v30.2h-10l-1-3.8c-1,1.3-2.4,2.3-4.2,3.1c-1.9,0.8-3.9,1.1-6.3,1.1c-3.7,0-6.7-0.9-8.9-2.8c-2.2-1.9-3.3-4.7-3.3-8.4
		c0-2.8,0.5-5.1,1.4-7c1-1.8,2.1-3.2,3.4-3.9c0.8-0.5,2.4-0.9,5-1.3c2.5-0.3,4.7-0.5,6.6-0.5c1.7,0,3.5,0.1,5.3,0.4
		C98,87.8,98,86.9,98,86.8V82.6z M94,106.2c1.3,0,2.6-0.2,4-0.5V94.9c-1.4-0.1-2.9-0.2-4.6-0.2c-1.4,0-2.3,0.1-2.7,0.2
		c-0.5,0.3-0.9,1-1.3,2.3c-0.3,1.2-0.4,2.5-0.4,3.9c0,2,0.4,3.4,1.3,4C91.3,105.8,92.5,106.2,94,106.2z M135.9,106.5
		c1.2,0,3.4-0.1,6.6-0.3c0.4,0,1.2,0,2.3-0.1l1.1,5.1c-3.7,1.2-8.4,1.8-14.2,1.8c-5.5,0-9.6-1-12.6-2.9c-2.9-1.9-4.4-4.8-4.4-8.7
		c0-2,0.4-3.9,1.1-5.8s1.6-3.2,2.5-3.9c1-0.7,2.8-1.4,5.6-1.9c2.7-0.5,5.4-0.8,8.1-0.8c4.3,0,7.5,0.5,9.6,1.6
		c2.2,1.1,3.5,2.5,4.2,4.4s1,4.4,1,7.5c-3.2,0.1-6.4,0.2-9.5,0.2h-10.1c0,1.1,0.3,1.9,1,2.4c0.6,0.5,1.5,0.9,2.7,1
		C132.1,106.4,133.8,106.5,135.9,106.5z M128,95c-0.3,0.1-0.5,0.5-0.7,1.3s-0.2,1.6-0.3,2.6h3.7c2.2,0,3.8,0,4.8,0
		c0-1.6-0.3-2.7-1-3.4c-0.6-0.7-1.7-1-3.3-1C130,94.5,128.9,94.6,128,95z M193.5,105.7l0.8,5.8c-1.7,0.5-3.8,0.9-6.1,1.2
		c-2.3,0.2-4.5,0.3-6.5,0.3c-6.5,0-11.5-1.2-15.2-3.5c-3.6-2.4-5.5-6-5.5-10.9c0-5,1.9-8.7,5.8-11.2c3.9-2.5,9.3-3.7,16.2-3.7
		c3.3,0,6.8,0.3,10.4,0.9c0,0.7-0.1,1.6-0.3,3c-0.2,1.3-0.4,2.2-0.6,2.8H188c-3.3,0-5.9,0-7.7,0.1c-1.9,0.1-3,0.3-3.4,0.5
		c-0.7,0.5-1.3,1.4-1.6,2.8c-0.4,1.4-0.6,2.8-0.6,4.1c0,2.2,0.4,4,1.2,5.2s1.8,2,3.1,2.4c1.2,0.4,3.2,0.6,5.9,0.6
		C187.1,106.1,190,105.9,193.5,105.7z M218.6,89c0.6,0,1.3,0.1,2,0.2s1.2,0.2,1.5,0.3c0,0.7-0.1,1.9-0.4,3.6
		c-0.2,1.7-0.4,2.9-0.7,3.6c-0.5,0-1.3-0.1-2.6-0.1c-3,0-5.6,0.1-8,0.3v15.4h-12.2V89.5h10.2l1.4,3.7h0.1c1.4-1.3,2.8-2.3,4.4-3
		C216,89.4,217.4,89,218.6,89z M252.8,112.4h-10.1l-1.1-3.1c-2.2,2.5-5.2,3.7-9.1,3.7c-3.2,0-5.8-0.6-7.8-1.9s-3-3-3-5.3
		c0-1.4,0.6-2.6,1.7-3.7c1.2-1,2.8-1.8,4.8-2.2c2.7-0.5,6.8-0.8,12.3-0.9c0-2.2-0.2-3.4-0.4-3.5s-1-0.2-2.3-0.2
		c-0.8,0-1.9,0-3.3,0.1c-2.3,0.1-5.4,0.3-9.3,0.5c-0.4-1.8-0.7-3.7-0.9-5.8c2.5-0.4,5.2-0.7,7.9-0.9c2.7-0.3,5.2-0.4,7.4-0.4
		c3.8,0,6.6,0.5,8.5,1.3c1.9,0.9,3.1,2,3.7,3.5c0.6,1.4,0.8,3.2,0.8,5.4l-0.1,7.3L252.8,112.4z M236.6,107.5c1.2,0,2.5-0.2,3.9-0.5
		v-3.7h-0.6c-3.5,0-5.5,0.1-5.8,0.4c-0.2,0.2-0.4,0.4-0.5,0.8c-0.1,0.3-0.2,0.6-0.2,0.9c0,0.8,0.3,1.3,0.8,1.6
		S235.5,107.5,236.6,107.5z M273.7,86.9c-0.3,0.2-0.5,0.9-0.5,2.1v0.5h7.6v4.9h-7.6v18H261v-18h-5.3V90l5.3-0.5v-0.7
		c0-1.5,0.3-2.9,0.9-4.2c0.6-1.3,1.1-2.1,1.6-2.4c1.5-0.9,4.6-1.3,9.4-1.3c2.6,0,5.5,0.1,8.7,0.4c0,0.4-0.1,1.2-0.2,2.4
		c-0.2,1.2-0.3,2.2-0.5,3l-3.1-0.1C275.3,86.7,273.9,86.8,273.7,86.9z M298.9,94.4v8.6c0,0.6,0,1.2,0.1,1.9s0.2,1.1,0.4,1.2
		c0.3,0.2,1.5,0.4,3.5,0.4h2.4c0.4,1.6,0.7,3.4,0.7,5.5c-0.9,0.2-2.2,0.5-4,0.6c-1.7,0.2-3.4,0.3-4.9,0.3c-3.3,0-5.8-0.5-7.6-1.5
		c-1.8-1-2.7-2.6-2.7-4.7V94.4h-5.3v-4.5l5.3-0.4L290,84l8.9-0.3v5.8h7.5v4.9H298.9z M330,106.5c1.2,0,3.4-0.1,6.6-0.3
		c0.4,0,1.2,0,2.3-0.1l1.1,5.1c-3.7,1.2-8.4,1.8-14.2,1.8c-5.5,0-9.7-1-12.6-2.9s-4.4-4.8-4.4-8.7c0-2,0.4-3.9,1.1-5.8
		s1.6-3.2,2.5-3.9c1-0.7,2.8-1.4,5.5-1.9s5.4-0.8,8.1-0.8c4.3,0,7.5,0.5,9.6,1.6s3.5,2.5,4.2,4.4s1,4.4,1,7.5
		c-3.2,0.1-6.4,0.2-9.5,0.2h-10.1c0,1.1,0.3,1.9,0.9,2.4c0.7,0.5,1.6,0.9,2.8,1C326.1,106.4,327.8,106.5,330,106.5z M322,95
		c-0.3,0.1-0.5,0.5-0.7,1.3s-0.2,1.6-0.3,2.6h3.7c2.2,0,3.9,0,4.8,0c0-1.6-0.3-2.7-1-3.4c-0.6-0.7-1.7-1-3.3-1
		C324.1,94.5,322.9,94.6,322,95z M365.5,82.6l12.2-0.4v30.2h-10l-1-3.8c-1,1.3-2.4,2.3-4.2,3.1c-1.8,0.8-3.9,1.1-6.3,1.1
		c-3.7,0-6.7-0.9-8.9-2.8c-2.2-1.9-3.3-4.7-3.3-8.4c0-2.8,0.5-5.1,1.4-7c1-1.8,2.1-3.2,3.3-3.9c0.8-0.5,2.5-0.9,5-1.3
		c2.5-0.3,4.7-0.5,6.7-0.5c1.7,0,3.5,0.1,5.3,0.4c-0.1-1.6-0.2-2.5-0.2-2.6V82.6z M361.6,106.2c1.3,0,2.6-0.2,4-0.5V94.9
		c-1.4-0.1-2.9-0.2-4.5-0.2c-1.4,0-2.3,0.1-2.7,0.2c-0.5,0.3-0.9,1-1.3,2.3c-0.3,1.2-0.4,2.5-0.4,3.9c0,2,0.4,3.4,1.3,4
		C358.8,105.8,360,106.2,361.6,106.2z"/>
</g>
</svg>
