<?xml version="1.0" encoding="UTF-8"?>
<svg id="Layer_1" data-name="Layer 1" xmlns="http://www.w3.org/2000/svg" viewBox="0 0 579.44 148.99">
  <defs>
    <style>
      .cls-1, .cls-2 {
        fill: #fff;
      }

      .cls-2 {
        stroke: #231f20;
        stroke-miterlimit: 10;
        stroke-width: .5px;
      }
    </style>
  </defs>
  <g>
    <path class="cls-2" d="m27.22,140.72c.26,0,.49.11.69.33l1.9,2.13c-1.45,1.75-3.2,3.11-5.26,4.09-2.06.98-4.56,1.47-7.48,1.47-2.53,0-4.83-.46-6.9-1.37-2.07-.92-3.84-2.2-5.3-3.86-1.46-1.65-2.6-3.64-3.4-5.95-.81-2.31-1.21-4.86-1.21-7.63s.42-5.32,1.26-7.63c.84-2.31,2.02-4.3,3.54-5.96s3.34-2.95,5.46-3.87c2.12-.92,4.46-1.38,7.03-1.38s4.73.42,6.66,1.26c1.92.84,3.62,1.98,5.08,3.42l-1.58,2.29c-.1.17-.23.31-.38.42-.16.11-.37.17-.63.17-.3,0-.66-.17-1.08-.5s-.99-.71-1.68-1.12c-.69-.41-1.55-.78-2.59-1.12-1.04-.33-2.31-.5-3.82-.5-1.82,0-3.49.33-5,.99-1.51.66-2.81,1.62-3.91,2.87-1.09,1.25-1.94,2.78-2.55,4.58s-.91,3.83-.91,6.09.32,4.34.95,6.14c.63,1.8,1.5,3.32,2.59,4.56,1.09,1.24,2.38,2.19,3.87,2.84,1.49.65,3.09.98,4.82.98,1.05,0,2-.06,2.85-.19.85-.13,1.63-.33,2.34-.6s1.38-.62,2-1.04c.62-.42,1.23-.92,1.84-1.5.28-.26.56-.39.84-.39Z"/>
    <path class="cls-2" d="m86.69,129.92c0,2.76-.42,5.29-1.26,7.6-.84,2.31-2.02,4.29-3.55,5.95-1.53,1.66-3.37,2.95-5.51,3.87-2.14.92-4.52,1.38-7.11,1.38s-4.96-.46-7.1-1.38c-2.14-.92-3.97-2.21-5.5-3.87-1.53-1.66-2.71-3.65-3.55-5.95-.84-2.3-1.26-4.84-1.26-7.6s.42-5.29,1.26-7.6c.84-2.3,2.02-4.29,3.55-5.96s3.36-2.97,5.5-3.89c2.14-.93,4.5-1.39,7.1-1.39s4.97.46,7.11,1.39,3.98,2.22,5.51,3.89c1.53,1.67,2.71,3.66,3.55,5.96.84,2.31,1.26,4.84,1.26,7.6Zm-4.91,0c0-2.26-.3-4.29-.89-6.09s-1.43-3.32-2.51-4.56-2.4-2.2-3.94-2.87c-1.55-.67-3.27-1-5.18-1s-3.61.33-5.15,1c-1.54.67-2.86,1.62-3.96,2.87s-1.94,2.76-2.53,4.56c-.59,1.8-.89,3.83-.89,6.09s.3,4.29.89,6.08c.59,1.79,1.43,3.31,2.53,4.55s2.41,2.19,3.96,2.85c1.54.66,3.26.99,5.15.99s3.63-.33,5.18-.99c1.54-.66,2.86-1.61,3.94-2.85s1.92-2.76,2.51-4.55c.59-1.79.89-3.82.89-6.08Z"/>
    <path class="cls-2" d="m143.51,129.92c0,2.76-.42,5.27-1.26,7.53-.84,2.26-2.02,4.2-3.55,5.81-1.53,1.61-3.37,2.86-5.51,3.74-2.14.88-4.52,1.32-7.11,1.32h-13.19v-36.84h13.19c2.6,0,4.97.44,7.11,1.32,2.15.88,3.98,2.13,5.51,3.75,1.53,1.62,2.71,3.56,3.55,5.82.84,2.26,1.26,4.77,1.26,7.53Zm-4.91,0c0-2.26-.3-4.28-.89-6.07-.59-1.78-1.43-3.29-2.51-4.52-1.08-1.23-2.4-2.18-3.94-2.83-1.55-.65-3.27-.98-5.18-.98h-8.41v28.76h8.41c1.91,0,3.63-.33,5.18-.98,1.54-.65,2.86-1.59,3.94-2.81,1.08-1.23,1.92-2.73,2.51-4.51.59-1.78.89-3.81.89-6.07Z"/>
    <path class="cls-2" d="m191.56,144.27l-.02,4.06h-21.77v-36.84h21.77v4.06h-16.99v12.24h13.76v3.91h-13.76v12.57h17.01Z"/>
    <path class="cls-2" d="m274.42,140.72c.26,0,.49.11.69.33l1.9,2.13c-1.45,1.75-3.2,3.11-5.26,4.09s-4.56,1.47-7.48,1.47c-2.53,0-4.83-.46-6.9-1.37-2.07-.92-3.84-2.2-5.3-3.86-1.46-1.65-2.6-3.64-3.4-5.95-.81-2.31-1.21-4.86-1.21-7.63s.42-5.32,1.26-7.63c.84-2.31,2.02-4.3,3.54-5.96,1.52-1.66,3.34-2.95,5.46-3.87,2.12-.92,4.46-1.38,7.03-1.38s4.73.42,6.66,1.26c1.92.84,3.62,1.98,5.08,3.42l-1.58,2.29c-.1.17-.23.31-.38.42-.16.11-.37.17-.63.17-.3,0-.66-.17-1.08-.5s-.99-.71-1.68-1.12c-.69-.41-1.55-.78-2.59-1.12-1.04-.33-2.31-.5-3.82-.5-1.82,0-3.49.33-5,.99-1.51.66-2.81,1.62-3.91,2.87s-1.94,2.78-2.55,4.58c-.61,1.8-.91,3.83-.91,6.09s.32,4.34.95,6.14,1.5,3.32,2.59,4.56c1.09,1.24,2.38,2.19,3.87,2.84,1.49.65,3.09.98,4.82.98,1.05,0,2-.06,2.85-.19.85-.13,1.63-.33,2.34-.6s1.38-.62,2-1.04c.62-.42,1.23-.92,1.84-1.5.28-.26.56-.39.84-.39Z"/>
    <path class="cls-2" d="m328.05,148.33h-4.24c-.87,0-1.51-.35-1.92-1.05l-9.17-13.16c-.28-.41-.58-.71-.9-.89-.32-.18-.82-.27-1.49-.27h-3.62v15.37h-4.76v-36.84h9.98c2.23,0,4.17.24,5.79.71,1.63.47,2.97,1.15,4.03,2.04,1.06.89,1.84,1.97,2.35,3.23.51,1.26.76,2.67.76,4.23,0,1.3-.2,2.52-.59,3.65-.39,1.13-.97,2.15-1.71,3.05-.75.9-1.66,1.67-2.74,2.3s-2.3,1.11-3.66,1.44c.61.36,1.13.88,1.58,1.57l10.31,14.63Zm-16.32-19c1.38,0,2.6-.18,3.66-.53,1.06-.35,1.95-.85,2.66-1.49s1.25-1.41,1.62-2.3c.36-.89.54-1.88.54-2.96,0-2.19-.69-3.85-2.07-4.96-1.38-1.11-3.45-1.67-6.21-1.67h-5.23v13.91h5.03Z"/>
    <path class="cls-2" d="m380.93,148.33h-3.7c-.43,0-.77-.11-1.04-.33-.26-.22-.46-.51-.59-.85l-3.3-8.89h-15.85l-3.3,8.89c-.1.31-.29.58-.57.82-.28.24-.63.36-1.04.36h-3.7l14.13-36.84h4.83l14.13,36.84Zm-9.96-13.68l-5.55-14.99c-.16-.45-.34-.96-.52-1.55-.18-.59-.35-1.22-.52-1.89-.34,1.39-.7,2.55-1.06,3.47l-5.55,14.96h13.19Z"/>
    <path class="cls-2" d="m409.75,115.55v12.88h14.52v4.06h-14.52v15.83h-4.78v-36.84h21.77v4.06h-16.99Z"/>
    <path class="cls-2" d="m476.11,115.68h-11.44v32.65h-4.76v-32.65h-11.46v-4.19h27.66v4.19Z"/>
    <path class="cls-2" d="m522.51,144.27l-.02,4.06h-21.77v-36.84h21.77v4.06h-16.99v12.24h13.76v3.91h-13.76v12.57h17.01Z"/>
    <path class="cls-2" d="m579.19,129.92c0,2.76-.42,5.27-1.26,7.53-.84,2.26-2.02,4.2-3.55,5.81s-3.36,2.86-5.51,3.74c-2.14.88-4.52,1.32-7.11,1.32h-13.19v-36.84h13.19c2.6,0,4.97.44,7.11,1.32,2.15.88,3.98,2.13,5.51,3.75s2.71,3.56,3.55,5.82c.84,2.26,1.26,4.77,1.26,7.53Zm-4.91,0c0-2.26-.3-4.28-.89-6.07-.59-1.78-1.43-3.29-2.51-4.52-1.08-1.23-2.4-2.18-3.94-2.83-1.54-.65-3.27-.98-5.18-.98h-8.41v28.76h8.41c1.91,0,3.63-.33,5.18-.98,1.55-.65,2.86-1.59,3.94-2.81s1.92-2.73,2.51-4.51.89-3.81.89-6.07Z"/>
  </g>
  <g>
    <path class="cls-1" d="m326.15,64.51l-1.47,1.46c-5.63,5.6-11.6,8.21-18.78,8.21-16.37,0-26.54-11.89-26.54-31.02s10.17-30.53,26.54-30.53c6.5,0,11.97,2.18,16.75,6.66l1.5,1.41,9.33-9.14-1.26-1.2c-4.05-3.87-12.86-10.37-26.31-10.37-25.47,0-42.58,17.45-42.58,43.41s16.67,43.41,41.48,43.41c11.98,0,21.64-4.01,29.54-12.26l1.17-1.22-9.37-8.83Z"/>
    <g>
      <ellipse class="cls-1" cx="365.83" cy="43.41" rx="5.61" ry="5.74"/>
      <path class="cls-1" d="m365.83,49.41c-3.23,0-5.86-2.69-5.86-5.99s2.63-5.99,5.86-5.99,5.86,2.69,5.86,5.99-2.63,5.99-5.86,5.99Zm0-11.47c-2.96,0-5.36,2.46-5.36,5.48s2.4,5.48,5.36,5.48,5.36-2.46,5.36-5.48-2.4-5.48-5.36-5.48Z"/>
    </g>
    <g>
      <ellipse class="cls-1" cx="233.01" cy="43.41" rx="5.61" ry="5.74"/>
      <path class="cls-1" d="m233.01,49.41c-3.23,0-5.86-2.69-5.86-5.99s2.63-5.99,5.86-5.99,5.86,2.69,5.86,5.99-2.63,5.99-5.86,5.99Zm0-11.47c-2.96,0-5.36,2.46-5.36,5.48s2.4,5.48,5.36,5.48,5.36-2.46,5.36-5.48-2.4-5.48-5.36-5.48Z"/>
    </g>
  </g>
</svg>